<?xml version="1.0" standalone="no"?>
<!DOCTYPE svg PUBLIC "-//W3C//DTD SVG 20010904//EN"
 "http://www.w3.org/TR/2001/REC-SVG-20010904/DTD/svg10.dtd">
<svg version="1.0" xmlns="http://www.w3.org/2000/svg"
 width="700.000000pt" height="700.000000pt" viewBox="0 0 700.000000 700.000000"
 preserveAspectRatio="xMidYMid meet">
<metadata>
Created by potrace 1.14, written by Peter Selinger 2001-2017
</metadata>
<g transform="translate(0.000000,700.000000) scale(0.100000,-0.100000)"
fill="#000000" stroke="none">
<path d="M1237 6153 c1 -258 5 -1237 9 -2178 7 -1803 11 -2709 13 -2737 0 -9
13 -23 29 -31 15 -7 45 -24 67 -37 85 -48 332 -188 375 -212 25 -14 85 -48
134 -77 49 -28 90 -51 92 -51 2 0 141 -79 174 -100 8 -5 31 -18 50 -28 20 -11
168 -95 330 -187 l295 -168 220 1 c121 0 526 1 900 2 l679 1 24 42 c13 23 38
67 54 97 36 65 394 698 408 720 23 39 381 671 405 715 15 28 44 79 65 115 20
36 56 99 79 140 23 41 46 82 51 90 6 8 22 38 37 65 15 28 32 58 38 67 5 9 38
66 71 125 34 59 108 189 164 288 56 99 115 204 131 233 16 28 40 70 54 92 14
22 25 41 25 43 0 2 22 42 48 88 60 104 102 179 102 182 0 1 -145 1 -322 0
-178 -1 -581 -3 -896 -4 l-572 -1 -20 -28 c-11 -15 -20 -31 -20 -35 0 -4 -8
-19 -19 -33 -10 -15 -33 -54 -51 -87 -18 -33 -98 -175 -178 -315 -79 -140
-156 -275 -170 -300 -14 -25 -78 -137 -142 -250 -64 -113 -131 -230 -147 -260
-17 -30 -79 -140 -138 -245 -60 -104 -121 -215 -138 -245 -16 -30 -33 -59 -37
-65 -4 -5 -18 -30 -32 -55 -14 -25 -65 -115 -113 -200 -48 -85 -99 -175 -113
-200 -14 -25 -50 -88 -80 -140 -31 -52 -69 -120 -86 -151 -92 -166 -272 -479
-276 -479 -3 0 -6 309 -7 688 -2 742 -14 3999 -16 4431 l-2 264 -160 92 c-191
109 -176 100 -300 170 -55 31 -107 60 -115 65 -71 41 -374 213 -405 230 -22
12 -83 47 -135 77 -52 30 -102 58 -110 62 -8 4 -60 34 -115 66 -100 58 -203
115 -208 115 -1 0 -1 -210 0 -467z"/>
</g>
</svg>
